<?xml version="1.0" encoding="utf-8"?>
<!-- Generator: Adobe Illustrator 25.2.3, SVG Export Plug-In . SVG Version: 6.00 Build 0)  -->
<svg version="1.1" id="图层_1" xmlns="http://www.w3.org/2000/svg" xmlns:xlink="http://www.w3.org/1999/xlink" x="0px" y="0px"
	 viewBox="0 0 90 112.5" style="enable-background:new 0 0 90 112.5;" xml:space="preserve">
<path d="M45.1,19.5c2.3,0,4.6,1,6.2,2.6c3.5,3.5,3.5,9.2,0,12.7c-3.5,3.5-9.2,3.5-12.7,0c-3.5-3.5-3.5-9.2,0-12.7
	C40.4,20.4,42.7,19.5,45.1,19.5z M45,5.2c-12.8,0-23.2,10.4-23.2,23.2c0,5,2.1,12.6,6.6,17.8L45,65.6l16.6-19.3
	c4.5-5.3,6.6-12.8,6.6-17.8C68.2,15.7,57.8,5.2,45,5.2z"/>
<path d="M22.7,55.4c-0.8,0-1.6,0.5-1.9,1.3l-3.5,10.8h23.5L30.4,55.4H22.7z"/>
<path d="M59.6,55.4L49.2,67.6h23.5l-3.5-10.8c-0.3-0.8-1-1.3-1.9-1.3L59.6,55.4L59.6,55.4z"/>
<path d="M16.1,71.4l-3.5,10.9c-0.4,1.3,0.5,2.5,1.9,2.5h61.1c1.3,0,2.3-1.3,1.8-2.5l-3.5-10.9H16.1z"/>
</svg>
