<?xml version="1.0" encoding="utf-8"?>
<!-- Generator: Adobe Illustrator 25.2.3, SVG Export Plug-In . SVG Version: 6.00 Build 0)  -->
<svg version="1.1"
	 id="图层_1" xmlns:cc="http://creativecommons.org/ns#" xmlns:dc="http://purl.org/dc/elements/1.1/" xmlns:inkscape="http://www.inkscape.org/namespaces/inkscape" xmlns:rdf="http://www.w3.org/1999/02/22-rdf-syntax-ns#" xmlns:sodipodi="http://sodipodi.sourceforge.net/DTD/sodipodi-0.dtd" xmlns:svg="http://www.w3.org/2000/svg"
	 xmlns="http://www.w3.org/2000/svg" xmlns:xlink="http://www.w3.org/1999/xlink" x="0px" y="0px" viewBox="0 0 100 125"
	 style="enable-background:new 0 0 100 125;" xml:space="preserve">
<g transform="translate(0,-952.36218)">
	<path d="M17,975.4c-1.2,0-2.3,0.4-3.2,1l33.8,32c1.5,1.4,3.4,1.4,4.9,0l33.7-32c-0.9-0.6-2-1-3.2-1L17,975.4L17,975.4z M11.4,979.5
		c-0.2,0.7-0.4,1.3-0.4,2.1v41.6c0,1.3,0.4,2.4,1,3.4l23.9-23.8L11.4,979.5z M88.6,979.5l-24.4,23.2l23.8,23.9c0.6-1,1-2.1,1-3.4
		v-41.6C89,980.8,88.9,980.1,88.6,979.5L88.6,979.5z M61.3,1005.5l-6.1,5.8c-2.9,2.8-7.5,2.8-10.4,0l-6.1-5.8L15.1,1029
		c0.6,0.2,1.2,0.3,1.9,0.3h66c0.7,0,1.3-0.1,1.9-0.3L61.3,1005.5z"/>
</g>
</svg>
